<svg xmlns="http://www.w3.org/2000/svg" viewBox="0 0 1600 1000" fill="none">
  <rect width="1600" height="1000" fill="#120f0d"/>
  <circle cx="1230" cy="260" r="250" fill="#f3b37c" fill-opacity=".08"/>
  <rect x="140" y="170" width="1320" height="660" rx="40" fill="#1a1511" stroke="#6c513f"/>
  <rect x="220" y="250" width="360" height="500" rx="34" fill="#221a14" stroke="#8c5d36"/>
  <rect x="650" y="330" width="170" height="290" rx="85" fill="#f3b37c"/>
  <rect x="700" y="232" width="70" height="90" rx="35" fill="#f3b37c"/>
  <rect x="620" y="620" width="230" height="26" rx="13" fill="#f7dfd0"/>
  <path d="M930 415c60-72 167-72 227 0" stroke="#f3b37c" stroke-width="18" stroke-linecap="round"/>
  <path d="M900 357c95-110 271-110 366 0" stroke="#8c5d36" stroke-width="18" stroke-linecap="round"/>
  <path d="M956 492c47-54 128-54 175 0" stroke="#f3b37c" stroke-width="18" stroke-linecap="round"/>
  <rect x="980" y="594" width="238" height="24" rx="12" fill="#f7dfd0"/>
  <rect x="980" y="642" width="182" height="24" rx="12" fill="#c9b09b"/>
  <text x="140" y="914" fill="#f7dfd0" font-family="Sora, Arial, sans-serif" font-size="54" font-weight="700">Podcast service placeholder</text>
  <text x="140" y="964" fill="#c9b09b" font-family="Inter, Arial, sans-serif" font-size="28">Keep the slot now. Swap in studio, guest, or on-location imagery later.</text>
</svg>
