<svg xmlns="http://www.w3.org/2000/svg" viewBox="0 0 1600 1000" fill="none">
  <rect width="1600" height="1000" fill="#15110e"/>
  <rect x="120" y="130" width="1360" height="740" rx="40" fill="#211912" stroke="#6c513f"/>
  <rect x="184" y="214" width="360" height="240" rx="28" fill="#3b2a1e"/>
  <rect x="620" y="214" width="360" height="240" rx="28" fill="#3b2a1e"/>
  <rect x="1056" y="214" width="360" height="240" rx="28" fill="#3b2a1e"/>
  <rect x="184" y="516" width="796" height="226" rx="28" fill="#18120f" stroke="#8c5d36"/>
  <rect x="1056" y="516" width="360" height="226" rx="28" fill="#18120f" stroke="#8c5d36"/>
  <circle cx="366" cy="334" r="54" fill="#f3b37c"/>
  <circle cx="802" cy="334" r="54" fill="#f3b37c" fill-opacity=".72"/>
  <circle cx="1238" cy="334" r="54" fill="#f3b37c" fill-opacity=".55"/>
  <rect x="246" y="590" width="672" height="28" rx="14" fill="#f7dfd0"/>
  <rect x="246" y="642" width="514" height="24" rx="12" fill="#c9b09b"/>
  <rect x="246" y="690" width="402" height="24" rx="12" fill="#c9b09b"/>
  <rect x="1110" y="588" width="252" height="24" rx="12" fill="#f7dfd0"/>
  <rect x="1110" y="636" width="194" height="24" rx="12" fill="#c9b09b"/>
  <text x="120" y="935" fill="#f7dfd0" font-family="Sora, Arial, sans-serif" font-size="52" font-weight="700">Placeholder gallery slot</text>
</svg>
